<svg width="39" height="39" viewBox="0 0 39 39" fill="none" xmlns="http://www.w3.org/2000/svg">
<path d="M36.5625 18.1594H20.9015V2.4375C20.9015 1.70625 20.2921 1.03593 19.5 1.03593C18.7687 1.03593 18.0984 1.64531 18.0984 2.4375V18.1594H2.43745C1.7062 18.1594 1.03589 18.7687 1.03589 19.5609C1.03589 20.2922 1.64526 20.9625 2.43745 20.9625H18.1593V36.5625C18.1593 37.2937 18.7687 37.9641 19.5609 37.9641C20.2921 37.9641 20.9625 37.3547 20.9625 36.5625V20.9016H36.5625C37.2937 20.9016 37.964 20.2922 37.964 19.5C37.964 18.7687 37.2937 18.1594 36.5625 18.1594Z" fill="#f97316"/>
</svg>
