<svg width="38" height="37" viewBox="0 0 38 37" fill="none" xmlns="http://www.w3.org/2000/svg">
<path d="M37.6975 0V14.7211H34.1016V6.40752C32.1653 8.59743 30.2291 10.8684 27.9767 12.8961C25.7244 14.9238 22.8793 16.3432 19.639 17.276C19.481 21.9802 18.177 26.6845 15.3319 30.3343C12.3287 34.1869 7.70545 36.7824 1.8177 36.7824V33.092C6.71758 33.092 10.1159 31.1049 12.5263 28.0228C14.6206 25.3462 15.6875 21.7369 15.9246 18.0465C15.3714 18.087 14.9367 18.3709 14.344 18.3709C4.26764 18.3709 0 12.0851 0 7.34026C0 5.63699 0.592727 3.85262 1.77818 2.43323C3.00315 1.01385 4.89988 0 7.15224 0C11.4989 0 14.7392 2.83877 16.7544 6.16419C18.2165 8.55688 18.9278 11.1929 19.3229 13.7072C21.6543 12.8961 23.7091 11.7606 25.5663 10.1385C27.6606 8.273 29.5573 5.96142 31.6121 3.69041H23.3139V0H37.6975ZM7.19176 3.69041C5.88776 3.69041 5.09746 4.17705 4.50473 4.86647C3.912 5.55589 3.59588 6.52918 3.59588 7.38081C3.59588 9.97626 5.65067 14.7616 14.344 14.7616C14.9367 14.7616 15.2924 14.5183 15.8061 14.4777C15.4899 12.4095 14.8972 10.0979 13.7118 8.15133C12.1707 5.47478 10.0369 3.69041 7.19176 3.69041Z" fill="#231F20"/>
</svg>
