<svg width="27" height="19" viewBox="0 0 27 19" fill="none" xmlns="http://www.w3.org/2000/svg">
<g clip-path="url(#clip0_2522_6476)">
<path d="M0 0H27V19H0V0Z" fill="#012169"/>
<path d="M3.16406 0L13.4578 7.16458L23.7094 0H27V2.45417L16.875 9.53958L27 16.5854V19H23.625L13.5 11.9146L3.41719 19H0V16.625L10.0828 9.57917L0 2.53333V0H3.16406Z" fill="white"/>
<path d="M17.8875 11.1229L27 17.4167V19L15.5672 11.1229H17.8875ZM10.125 11.9146L10.3781 13.3L2.27813 19H0L10.125 11.9146ZM27 0V0.11875L16.4953 7.56042L16.5797 5.81875L24.8906 0H27ZM0 0L10.0828 6.96667H7.55156L0 1.6625V0Z" fill="#C8102E"/>
<path d="M10.1672 0V19H16.9172V0H10.1672ZM0 6.33333V12.6667H27V6.33333H0Z" fill="white"/>
<path d="M0 7.63958V11.4396H27V7.63958H0ZM11.5172 0V19H15.5672V0H11.5172Z" fill="#C8102E"/>
</g>
<defs>
<clipPath id="clip0_2522_6476">
<rect width="27" height="19" fill="white"/>
</clipPath>
</defs>
</svg>
