<svg width="24" height="24" viewBox="0 0 24 24" fill="none" xmlns="http://www.w3.org/2000/svg">
<path d="M11.9999 19.7625C4.5749 19.7625 0.899902 12.675 0.749902 12.375C0.637402 12.15 0.637402 11.85 0.749902 11.625C0.899902 11.325 4.5749 4.27502 11.9999 4.27502C19.4249 4.27502 23.0999 11.325 23.2499 11.625C23.3624 11.85 23.3624 12.15 23.2499 12.375C23.0999 12.675 19.4249 19.7625 11.9999 19.7625ZM2.4749 12C3.2999 13.3875 6.5249 18.075 11.9999 18.075C17.4749 18.075 20.6999 13.3875 21.5249 12C20.6999 10.6125 17.4749 5.92502 11.9999 5.92502C6.5249 5.92502 3.2999 10.6125 2.4749 12Z" fill="#f97316"/>
<path d="M12 15.1875C10.2375 15.1875 8.8125 13.7625 8.8125 12C8.8125 10.2375 10.2375 8.8125 12 8.8125C13.7625 8.8125 15.1875 10.2375 15.1875 12C15.1875 13.7625 13.7625 15.1875 12 15.1875ZM12 10.5C11.175 10.5 10.5 11.175 10.5 12C10.5 12.825 11.175 13.5 12 13.5C12.825 13.5 13.5 12.825 13.5 12C13.5 11.175 12.825 10.5 12 10.5Z" fill="#f97316"/>
</svg>
