<svg width="81" height="19" viewBox="0 0 81 19" fill="none" xmlns="http://www.w3.org/2000/svg">
<path d="M4.3886 8.15249H2.53883V12.779H0.610352V0.366821H5.54962C8.14716 0.366821 9.62304 1.95656 9.62304 4.30042C9.62304 6.33855 8.52105 7.66333 6.61225 8.0302L10.1937 12.7587H7.81263L4.3886 8.15249ZM2.53883 6.37931H5.35284C6.94678 6.37931 7.67488 5.5233 7.67488 4.3208C7.67488 3.1183 6.92711 2.28267 5.35284 2.28267H2.53883V6.37931Z" fill="#231F20"/>
<path d="M30.9668 0.366821V7.76524H29.176V3.58707C28.2118 4.68766 27.2475 5.82901 26.1259 6.84808C25.0042 7.86715 23.5874 8.58049 21.9737 9.04926C21.895 11.4135 21.2456 13.7777 19.8288 15.612C18.3333 17.5483 16.0309 18.8527 13.0988 18.8527V16.998C15.5389 16.998 17.2313 15.9993 18.4316 14.4503C19.4746 13.1051 20.0059 11.2912 20.124 9.43651C19.8485 9.45689 19.632 9.59956 19.3368 9.59956C14.3189 9.59956 12.1936 6.44045 12.1936 4.05584C12.1936 3.19982 12.4888 2.30305 13.0791 1.5897C13.6892 0.876354 14.6337 0.366821 15.7554 0.366821C17.92 0.366821 19.5336 1.79351 20.5372 3.46478C21.2653 4.66728 21.6195 5.99206 21.8163 7.25571C22.9773 6.84808 24.0006 6.2774 24.9255 5.46215C25.9685 4.52461 26.913 3.36287 27.9363 2.22152H23.8038V0.366821H30.9668ZM15.7751 2.22152C15.1257 2.22152 14.7321 2.4661 14.4369 2.81258C14.1418 3.15906 13.9843 3.64821 13.9843 4.07622C13.9843 5.38063 15.0076 7.78562 19.3368 7.78562C19.632 7.78562 19.8091 7.66333 20.0649 7.64295C19.9075 6.6035 19.6123 5.44177 19.022 4.46347C18.2545 3.1183 17.1919 2.22152 15.7751 2.22152Z" fill="#FF691E"/>
<path d="M42.5895 10.4352C42.5895 13.1459 40.2675 14.2057 38.1225 14.2057C34.7772 14.2057 33.3013 12.2899 32.9668 10.1498H34.915C35.2692 11.5765 36.194 12.3306 38.1028 12.3306C39.7165 12.3306 40.6414 11.6784 40.6414 10.5167C40.6414 9.35496 39.6574 9.17153 37.4338 8.66199C35.1117 8.13208 33.3013 7.4595 33.3013 5.13603C33.3013 2.66989 35.4069 1.38586 37.6896 1.38586C40.7004 1.38586 42.0779 2.99599 42.4321 4.97298H40.4839C40.1494 3.95391 39.3229 3.28133 37.7093 3.28133C36.0957 3.28133 35.2298 4.01505 35.2298 5.11565C35.2298 5.99204 35.9186 6.27738 37.9061 6.72577C40.9365 7.39835 42.5895 8.05056 42.5895 10.4352Z" fill="#231F20"/>
<path d="M52.645 4.25966V14.0019H50.7165V12.3714C50.0278 13.4924 48.9061 14.2057 47.4302 14.2057C44.9114 14.2057 43.0813 12.1065 43.0813 9.1308C43.0813 6.15512 44.9507 4.05585 47.4105 4.05585C48.9061 4.05585 50.0278 4.80996 50.7165 5.93093V4.25966H52.645ZM50.7362 9.1308C50.7362 7.2761 49.4964 5.95131 47.8435 5.95131C46.2102 5.95131 45.0295 7.25571 45.0295 9.1308C45.0295 11.0059 46.2102 12.3103 47.8435 12.3103C49.4768 12.2899 50.7362 11.0059 50.7362 9.1308Z" fill="#231F20"/>
<path d="M53.9045 0.366821H55.8527V14.0019H53.9045V0.366821Z" fill="#231F20"/>
<path d="M66.3215 9.68109H58.6863C58.8438 11.4746 60.0638 12.4529 61.6184 12.4529C62.7401 12.4529 63.6846 11.9638 64.1372 11.0059H66.1444C65.4163 13.1867 63.6059 14.2057 61.6184 14.2057C58.7651 14.2057 56.7185 12.0861 56.7185 9.13079C56.7185 6.19588 58.7454 4.03546 61.5791 4.03546C64.6095 4.03546 66.5183 6.46084 66.3215 9.68109ZM58.7847 8.05058H64.2553C63.9601 6.7258 62.9959 5.76787 61.5791 5.76787C60.1032 5.76787 59.1193 6.7258 58.7847 8.05058Z" fill="#231F20"/>
<path d="M72.291 3.26097V6.11435H71.3858V3.46478C71.3858 2.77182 71.0907 2.38457 70.4216 2.38457C69.6541 2.38457 69.2409 2.8941 69.2409 3.7705V6.11435H68.3357V1.5897H69.2409V2.34381C69.5558 1.81389 70.028 1.48779 70.6971 1.48779C71.7007 1.48779 72.291 2.16038 72.291 3.26097Z" fill="#7019E7"/>
<path d="M77.1517 4.11698H73.5899C73.6686 4.95262 74.2196 5.40101 74.9674 5.40101C75.4987 5.40101 75.9316 5.17681 76.1284 4.72842H77.0533C76.7188 5.74749 75.8726 6.21626 74.9477 6.21626C73.6096 6.21626 72.665 5.21757 72.665 3.85203C72.665 2.48648 73.6096 1.48779 74.9281 1.48779C76.3449 1.48779 77.2304 2.62915 77.1517 4.11698ZM73.6293 3.36287H76.1678C76.03 2.75143 75.5774 2.30305 74.9281 2.30305C74.2393 2.30305 73.7867 2.75143 73.6293 3.36287Z" fill="#7019E7"/>
<path d="M80.871 5.89016C80.6348 6.03283 80.1232 6.21626 79.6312 6.21626C78.726 6.21626 78.0373 5.6252 78.0373 4.38194V2.4661H77.2305V1.5897H78.0373V0.570634L78.9425 0.366821V1.61008H80.7332V2.48648H78.9425V4.36156C78.9425 5.01376 79.2377 5.38063 79.8083 5.38063C80.0838 5.38063 80.3987 5.27872 80.7332 5.15643L80.871 5.89016Z" fill="#7019E7"/>
</svg>
