<svg width="19" height="19" viewBox="0 0 19 19" fill="none" xmlns="http://www.w3.org/2000/svg">
<path d="M9.5 0.534363C5.40312 0.534363 2.07812 3.74061 2.07812 7.68905C2.07812 10.6875 6.05625 15.4375 8.40156 17.9906C8.69844 18.3172 9.08438 18.4656 9.5 18.4656C9.91562 18.4656 10.3016 18.2875 10.5984 17.9906C12.9438 15.4375 16.9219 10.6875 16.9219 7.68905C16.9219 3.74061 13.5969 0.534363 9.5 0.534363ZM9.61875 17.1C9.55938 17.1594 9.47031 17.1594 9.38125 17.1C6.50156 13.9531 3.41406 9.85624 3.41406 7.68905C3.41406 4.4828 6.14531 1.8703 9.5 1.8703C12.8547 1.8703 15.5859 4.4828 15.5859 7.68905C15.5859 9.85624 12.4984 13.9531 9.61875 17.1Z" fill="#7C3AED"/>
<path d="M9.49998 4.66095C7.71873 4.66095 6.26404 6.11564 6.26404 7.89689C6.26404 9.67814 7.71873 11.1625 9.49998 11.1625C11.2812 11.1625 12.7359 9.70782 12.7359 7.92657C12.7359 6.14532 11.2812 4.66095 9.49998 4.66095ZM9.49998 9.82657C8.43123 9.82657 7.59998 8.96564 7.59998 7.92657C7.59998 6.88751 8.46091 6.02657 9.49998 6.02657C10.539 6.02657 11.4 6.88751 11.4 7.92657C11.4 8.96564 10.5687 9.82657 9.49998 9.82657Z" fill="#7C3AED"/>
</svg>
