<svg width="37" height="33" viewBox="0 0 37 33" fill="none" xmlns="http://www.w3.org/2000/svg">
<path d="M32.6341 6.03646H27.5995V4.21672C27.5995 1.97236 25.7797 0.0919571 23.4747 0.0919571H4.12476C1.8804 0.0919571 0 1.9117 0 4.21672V16.591C0 18.8353 1.81975 20.6551 4.0641 20.7157C3.45752 22.8388 2.91159 24.2339 2.48699 24.8405C2.12304 25.3258 2.1837 25.993 2.6083 26.4783C2.85094 26.7816 3.27554 26.9635 3.63949 26.9635C3.82147 26.9635 4.00344 26.9029 4.18542 26.8422C6.12648 25.993 10.1299 23.0814 11.9497 20.7157H12.9202C12.9202 21.201 12.9202 21.7469 12.9202 22.5355C12.9202 24.7798 14.7399 26.6603 17.045 26.6603H24.8092C26.6896 29.0259 30.6324 31.9375 32.5735 32.7867C32.7554 32.908 32.9374 32.908 33.1194 32.908C33.544 32.908 33.9686 32.7261 34.2112 32.3621C34.5752 31.8769 34.5752 31.149 34.1506 30.6637C33.4833 29.8751 33.1194 27.9947 32.8161 26.5389C34.9998 26.4176 36.6982 24.5979 36.6982 22.4142V10.1612C36.7589 7.91687 34.8785 6.03646 32.6341 6.03646ZM11.2824 17.9861C10.7972 17.9861 10.3726 18.2288 10.1299 18.5927C9.52334 19.5632 8.00688 20.9584 6.49043 22.1715C6.73306 21.3223 6.9757 20.4731 7.15767 19.6846C7.27899 19.26 7.15767 18.8353 6.91504 18.4714C6.6724 18.1074 6.2478 17.9255 5.82319 17.9255H4.12476C3.3362 17.9255 2.72962 17.3189 2.72962 16.5303V4.21672C2.72962 3.42816 3.3362 2.82158 4.12476 2.82158H23.4141C24.2026 2.82158 24.8092 3.42816 24.8092 4.21672V16.591C24.8092 17.3795 24.2026 17.9861 23.4141 17.9861H11.2824V17.9861ZM34.0293 22.4748C34.0293 23.2634 33.4227 23.87 32.6341 23.87H31.1783C30.7537 23.87 30.3898 24.0519 30.0865 24.4159C29.7832 24.7798 29.7225 25.1438 29.8438 25.5684C29.9045 25.8717 30.0258 26.2963 30.0865 26.7816C30.1471 27.2668 30.2684 27.7521 30.3898 28.2374C28.8127 27.0242 27.2962 25.6291 26.629 24.5979C26.3863 24.2339 25.9617 23.9913 25.4765 23.9913H16.9843C16.1957 23.9913 15.5892 23.3847 15.5892 22.5962C15.5892 21.9289 15.5892 21.2617 15.5892 20.7764H23.4141C25.6584 20.7764 27.5388 18.9567 27.5388 16.6516V8.76608H32.5735C33.362 8.76608 33.9686 9.37266 33.9686 10.1612V22.4748H34.0293Z" fill="black"/>
<path d="M6.42967 9.19069H6.36902C5.64112 9.19069 4.97388 9.79727 4.97388 10.5858C4.97388 11.3744 5.58046 11.981 6.36902 11.981H6.42967C7.15757 11.981 7.82481 11.3744 7.82481 10.5858C7.82481 9.79727 7.21823 9.19069 6.42967 9.19069Z" fill="black"/>
<path d="M13.7087 9.19069H13.6481C12.9202 9.19069 12.2529 9.79727 12.2529 10.5858C12.2529 11.3744 12.8595 11.981 13.6481 11.981H13.7087C14.4366 11.981 15.1039 11.3744 15.1039 10.5858C15.1039 9.79727 14.4973 9.19069 13.7087 9.19069Z" fill="black"/>
<path d="M20.9878 9.19069H20.9271C20.1992 9.19069 19.532 9.79727 19.532 10.5858C19.532 11.3744 20.1386 11.981 20.9271 11.981H20.9878C21.7157 11.981 22.3829 11.3744 22.3829 10.5858C22.3829 9.79727 21.7763 9.19069 20.9878 9.19069Z" fill="black"/>
</svg>
