<svg width="38" height="31" viewBox="0 0 38 31" fill="none" xmlns="http://www.w3.org/2000/svg">
<path d="M19.0802 18.4112C24.1148 18.4112 28.1789 14.3471 28.1789 9.31251C28.1789 4.27787 24.1148 0.213776 19.0802 0.213776C14.0455 0.213776 9.98145 4.27787 9.98145 9.31251C9.98145 14.3471 14.0455 18.4112 19.0802 18.4112ZM19.0802 2.94339C22.5984 2.94339 25.4493 5.79433 25.4493 9.31251C25.4493 12.8307 22.5984 15.6816 19.0802 15.6816C15.562 15.6816 12.7111 12.8307 12.7111 9.31251C12.7111 5.79433 15.562 2.94339 19.0802 2.94339Z" fill="black"/>
<path d="M36.974 28.3592C32.0001 24.1738 25.6916 21.8688 19.0799 21.8688C12.4681 21.8688 6.15966 24.1738 1.18568 28.3592C0.639758 28.8444 0.518442 29.6937 1.00371 30.3002C1.48897 30.8462 2.33819 30.9675 2.94477 30.4822C7.43348 26.6608 13.1354 24.5984 19.0799 24.5984C25.0244 24.5984 30.7262 26.6607 35.1543 30.4216C35.3969 30.6642 35.7002 30.7248 36.0642 30.7248C36.4281 30.7248 36.8527 30.5429 37.0953 30.2396C37.5806 29.6937 37.52 28.8444 36.974 28.3592Z" fill="black"/>
</svg>
