<svg width="39" height="39" viewBox="0 0 39 39" fill="none" xmlns="http://www.w3.org/2000/svg">
<path d="M36.6233 30.1641L30.3468 23.8875C29.4937 23.0344 28.3358 22.5469 27.1171 22.5469C26.3858 22.5469 25.6546 22.7297 25.0452 23.0344L21.8765 19.8656C25.4718 15.2953 25.1671 8.65313 20.9624 4.3875C16.453 -0.0609358 9.01865 -0.0609356 4.50928 4.50938C-0.0610352 9.07969 -0.0610352 16.4531 4.50928 21.0234C6.76396 23.2172 9.7499 24.375 12.7358 24.375C15.2952 24.375 17.8546 23.5219 19.9265 21.8766L23.0952 25.0453C22.7905 25.6547 22.6077 26.3859 22.6077 27.1172C22.6077 28.3359 23.0952 29.4938 23.9483 30.3469L30.2249 36.6234C31.139 37.5375 32.2968 37.9641 33.4546 37.9641C34.6124 37.9641 35.7702 37.5375 36.6843 36.6234C38.3905 34.8563 38.3905 31.9313 36.6233 30.1641ZM6.39834 19.0125C2.9249 15.5391 2.9249 9.87188 6.39834 6.39844C8.16553 4.63125 10.4202 3.77813 12.6749 3.77813C14.9296 3.77813 17.2452 4.63125 19.0124 6.39844C22.4858 9.87188 22.4858 15.5391 19.0124 19.0125C15.539 22.4859 9.87178 22.4859 6.39834 19.0125ZM34.6733 34.6734C34.003 35.3438 32.8452 35.4047 32.114 34.6734L25.8374 28.3969C25.4718 28.0313 25.289 27.6047 25.289 27.1172C25.289 26.6297 25.4718 26.2031 25.8374 25.8375C26.203 25.4719 26.6296 25.2891 27.1171 25.2891C27.6046 25.2891 28.0312 25.4719 28.3968 25.8375L34.6733 32.1141C35.3437 32.8453 35.3437 33.9422 34.6733 34.6734Z" fill="black"/>
</svg>
